<svg width="500" height="500" viewBox="0 0 500 500" fill="none" xmlns="http://www.w3.org/2000/svg">
<g clip-path="url(#clip0_1_2)">
<path d="M137.95 195.668C140.143 200.126 141.242 205.095 141.242 210.564C141.242 216.022 140.143 220.959 137.95 225.376C135.768 229.793 132.95 233.308 129.492 235.918C122.518 241.293 115.284 243.98 107.784 243.98H92.0129V258.251C92.0129 260.183 91.9504 261.636 91.8254 262.605C91.7004 263.579 91.3045 264.689 90.6379 265.939C89.4556 268.22 86.1691 269.355 80.7837 269.355C74.8931 269.355 71.4504 267.803 70.4504 264.689C69.9347 263.261 69.6795 261.074 69.6795 258.126V188.084C69.6795 186.157 69.742 184.709 69.867 183.751C69.992 182.782 70.3931 181.662 71.0754 180.397C72.2525 178.121 75.5337 176.98 80.9087 176.98H107.93C115.331 176.98 122.518 179.678 129.492 185.064C132.95 187.678 135.768 191.209 137.95 195.668ZM107.93 221.647C110.44 221.647 112.919 220.725 115.367 218.876C117.81 217.032 119.034 214.261 119.034 210.564C119.034 206.855 117.81 204.058 115.367 202.168C112.919 200.267 110.393 199.314 107.784 199.314H92.0129V221.647H107.93Z" fill="white"/>
<path d="M149.417 236.293C149.417 226.199 152.949 217.871 160.021 211.314C167.089 204.746 175.167 201.459 184.251 201.459C193.334 201.459 201.365 204.725 208.355 211.251C215.339 217.767 218.834 226.074 218.834 236.168C218.834 243.157 217.021 249.366 213.396 254.793C209.782 260.209 205.386 264.204 200.209 266.772C195.042 269.345 189.678 270.626 184.126 270.626C178.568 270.626 173.178 269.261 167.959 266.522C162.751 263.787 158.355 259.751 154.771 254.418C151.199 249.074 149.417 243.032 149.417 236.293ZM175.792 245.314C178.485 247.371 181.219 248.397 184.001 248.397C186.777 248.397 189.553 247.35 192.334 245.251C195.11 243.157 196.501 240.043 196.501 235.918C196.501 231.793 195.193 228.725 192.584 226.709C189.969 224.683 187.152 223.668 184.126 223.668C181.094 223.668 178.277 224.725 175.667 226.834C173.068 228.933 171.771 232.022 171.771 236.105C171.771 240.189 173.11 243.261 175.792 245.314Z" fill="white"/>
<path d="M426.025 203.73C430.993 205.928 433.483 208.579 433.483 211.689C433.483 213.204 433.139 214.636 432.462 215.98C431.795 217.329 431.462 218.043 431.462 218.126L398.4 292.064C397.717 293.657 397.15 294.876 396.691 295.709C396.233 296.553 395.493 297.355 394.483 298.105C393.467 298.866 392.202 299.251 390.691 299.251C389.176 299.251 386.946 298.626 384.004 297.376C379.045 295.178 376.566 292.569 376.566 289.543C376.566 287.527 380.597 277.897 388.67 260.647L363.566 218.376C361.884 215.6 361.045 213.537 361.045 212.189C361.045 209.496 363.316 206.803 367.858 204.105C370.717 202.428 372.946 201.584 374.545 201.584C376.139 201.584 377.441 201.928 378.441 202.605C379.452 203.272 380.191 203.97 380.65 204.689C381.118 205.397 383.441 209.308 387.608 216.418C391.775 223.532 395.743 230.157 399.525 236.293C399.952 234.949 402.222 229.751 406.337 220.709C410.462 211.668 412.67 206.855 412.962 206.272C413.264 205.678 413.754 204.954 414.42 204.105C415.514 202.689 417.051 201.98 419.025 201.98C420.993 201.98 423.327 202.564 426.025 203.73Z" fill="white"/>
<path d="M80.5415 288.703C81.1509 289.136 81.4582 289.547 81.4582 289.932C81.4582 290.172 81.3124 290.505 81.0207 290.932L76.9999 296.974V300.537C76.9999 300.818 76.9843 301.031 76.9582 301.182C76.9426 301.323 76.8801 301.49 76.7707 301.682C76.6718 301.865 76.5051 301.995 76.2707 302.078C76.0311 302.146 75.7134 302.182 75.3124 302.182C74.9218 302.182 74.6093 302.146 74.3749 302.078C74.1353 301.995 73.9686 301.86 73.8749 301.662C73.7759 301.469 73.7134 301.302 73.6874 301.162C73.6718 301.026 73.6665 300.802 73.6665 300.495V296.974L69.6249 290.932C69.3332 290.505 69.1874 290.172 69.1874 289.932C69.1874 289.547 69.4582 289.172 69.9999 288.807C70.552 288.432 70.9478 288.245 71.1874 288.245C71.4218 288.245 71.6093 288.297 71.7499 288.391C71.9686 288.531 72.1978 288.787 72.4374 289.162L75.3332 293.787L78.229 289.162C78.4634 288.787 78.6665 288.547 78.8332 288.432C79.0103 288.307 79.2134 288.245 79.4374 288.245C79.6718 288.245 80.0415 288.401 80.5415 288.703Z" fill="white"/>
<path d="M92.642 288.266C94.4858 288.266 96.09 288.932 97.4545 290.266C98.8139 291.599 99.4962 293.261 99.4962 295.245C99.4962 297.219 98.84 298.901 97.5379 300.287C96.2462 301.677 94.6473 302.37 92.7462 302.37C90.8556 302.37 89.2462 301.682 87.9129 300.307C86.59 298.932 85.9337 297.302 85.9337 295.412C85.9337 294.386 86.1212 293.422 86.4962 292.516C86.8712 291.615 87.3712 290.86 87.9962 290.245C88.6212 289.636 89.3348 289.156 90.142 288.807C90.9598 288.448 91.7931 288.266 92.642 288.266ZM89.2462 295.328C89.2462 296.427 89.6004 297.323 90.3087 298.016C91.0275 298.714 91.8348 299.057 92.7254 299.057C93.6108 299.057 94.4129 298.724 95.1212 298.057C95.8295 297.38 96.1837 296.474 96.1837 295.349C96.1837 294.214 95.8191 293.302 95.1004 292.62C94.392 291.927 93.59 291.578 92.7045 291.578C91.8139 291.578 91.017 291.927 90.3087 292.62C89.6004 293.318 89.2462 294.219 89.2462 295.328Z" fill="white"/>
<path d="M113.406 288.953C113.531 288.745 113.708 288.61 113.947 288.537C114.182 288.469 114.473 288.432 114.822 288.432C115.182 288.432 115.468 288.469 115.677 288.537C115.885 288.594 116.041 288.662 116.156 288.745C116.265 288.828 116.348 288.964 116.406 289.141C116.473 289.349 116.51 289.672 116.51 290.099V295.745C116.51 297.401 116 298.901 114.989 300.245C114.489 300.87 113.843 301.386 113.052 301.787C112.27 302.172 111.406 302.37 110.447 302.37C109.5 302.37 108.64 302.167 107.864 301.766C107.083 301.365 106.453 300.844 105.968 300.203C104.953 298.886 104.447 297.386 104.447 295.703V290.078C104.447 289.787 104.453 289.573 104.468 289.432C104.494 289.281 104.557 289.115 104.656 288.932C104.75 288.74 104.916 288.61 105.156 288.537C105.39 288.469 105.703 288.432 106.093 288.432C106.494 288.432 106.812 288.469 107.052 288.537C107.302 288.61 107.468 288.74 107.552 288.932C107.703 289.214 107.781 289.599 107.781 290.099V295.703C107.781 296.469 107.958 297.193 108.322 297.87C108.515 298.235 108.802 298.516 109.177 298.724C109.552 298.932 109.994 299.037 110.51 299.037C111.411 299.037 112.083 298.703 112.531 298.037C112.989 297.36 113.218 296.578 113.218 295.703V289.974C113.218 289.49 113.281 289.151 113.406 288.953Z" fill="white"/>
<path d="M132.233 299.828C132.426 300.276 132.525 300.594 132.525 300.787C132.525 301.276 132.134 301.677 131.358 301.995C130.952 302.162 130.629 302.245 130.379 302.245C130.139 302.245 129.946 302.188 129.795 302.078C129.639 301.953 129.525 301.828 129.441 301.703C129.316 301.469 128.827 300.344 127.983 298.328L127.42 298.37H125.066V300.474C125.066 300.766 125.051 300.985 125.025 301.12C125.009 301.261 124.952 301.427 124.858 301.62C124.676 301.953 124.191 302.12 123.4 302.12C122.525 302.12 122.009 301.891 121.858 301.432C121.785 301.224 121.754 300.901 121.754 300.453V290.078C121.754 289.802 121.759 289.594 121.775 289.453C121.801 289.302 121.863 289.136 121.962 288.953C122.129 288.61 122.613 288.432 123.42 288.432H127.441C128.535 288.432 129.608 288.839 130.65 289.641C131.15 290.031 131.556 290.557 131.879 291.224C132.196 291.88 132.358 292.61 132.358 293.412C132.358 294.818 131.889 295.974 130.962 296.891C131.238 297.547 131.66 298.526 132.233 299.828ZM125.066 295.057H127.441C127.801 295.057 128.16 294.927 128.525 294.662C128.9 294.386 129.087 293.974 129.087 293.432C129.087 292.88 128.9 292.464 128.525 292.182C128.16 291.891 127.795 291.745 127.42 291.745H125.066V295.057Z" fill="white"/>
<path d="M160.315 288.974C160.408 289.156 160.466 289.323 160.481 289.474C160.507 289.63 160.523 289.844 160.523 290.12V300.495C160.523 301.36 160.278 301.865 159.794 302.016C159.554 302.089 159.257 302.12 158.898 302.12C158.533 302.12 158.252 302.094 158.044 302.037C157.835 301.969 157.674 301.891 157.565 301.807C157.45 301.724 157.361 301.599 157.294 301.432C157.236 301.224 157.21 300.901 157.21 300.453V294.203C156.887 294.594 156.429 295.214 155.835 296.057C155.236 296.891 154.856 297.412 154.69 297.62C154.533 297.828 154.424 297.974 154.356 298.057C154.299 298.141 154.148 298.255 153.898 298.391C153.658 298.531 153.403 298.599 153.127 298.599C152.846 298.599 152.591 298.537 152.356 298.412C152.117 298.287 151.95 298.162 151.856 298.037L151.71 297.828C151.46 297.511 150.966 296.844 150.231 295.828C149.492 294.818 149.096 294.276 149.044 294.203V300.495C149.044 300.787 149.028 301.005 149.002 301.141C148.986 301.281 148.929 301.443 148.835 301.62C148.637 301.953 148.153 302.12 147.377 302.12C146.611 302.12 146.137 301.953 145.96 301.62C145.861 301.443 145.799 301.281 145.773 301.141C145.757 300.99 145.752 300.761 145.752 300.453V290.078C145.752 289.802 145.757 289.594 145.773 289.453C145.799 289.302 145.861 289.136 145.96 288.953C146.137 288.62 146.627 288.453 147.419 288.453C147.752 288.453 148.033 288.495 148.273 288.578C148.523 288.662 148.679 288.745 148.752 288.828L148.877 288.953L153.106 294.516C155.231 291.714 156.648 289.865 157.356 288.974C157.565 288.63 158.065 288.453 158.856 288.453C159.648 288.453 160.132 288.63 160.315 288.974Z" fill="white"/>
<path d="M169.062 298.828H174.812C175.104 298.828 175.317 298.844 175.458 298.87C175.593 298.886 175.76 298.943 175.958 299.037C176.291 299.219 176.458 299.703 176.458 300.495C176.458 301.37 176.229 301.886 175.77 302.037C175.546 302.11 175.218 302.141 174.791 302.141H167.395C166.52 302.141 166.005 301.906 165.854 301.432C165.781 301.24 165.749 300.922 165.749 300.474V290.078C165.749 289.453 165.864 289.026 166.104 288.787C166.338 288.552 166.791 288.432 167.458 288.432H174.812C175.104 288.432 175.317 288.448 175.458 288.474C175.593 288.49 175.76 288.547 175.958 288.641C176.291 288.823 176.458 289.307 176.458 290.099C176.458 290.974 176.229 291.49 175.77 291.641C175.546 291.714 175.218 291.745 174.791 291.745H169.062V293.641H172.749C173.041 293.641 173.255 293.656 173.395 293.682C173.546 293.698 173.713 293.755 173.895 293.849C174.229 294.016 174.395 294.505 174.395 295.307C174.395 296.172 174.156 296.677 173.687 296.828C173.479 296.912 173.15 296.953 172.708 296.953H169.062V298.828Z" fill="white"/>
<path d="M183.078 288.432H186.536C188.338 288.432 189.922 289.089 191.286 290.391C192.661 291.698 193.349 293.302 193.349 295.203C193.349 297.11 192.672 298.74 191.328 300.099C189.995 301.448 188.375 302.12 186.474 302.12H183.057C182.291 302.12 181.817 301.969 181.64 301.662C181.484 301.401 181.411 300.995 181.411 300.453V290.078C181.411 289.776 181.416 289.552 181.432 289.412C181.458 289.276 181.521 289.115 181.62 288.932C181.786 288.599 182.271 288.432 183.078 288.432ZM186.536 298.807C187.422 298.807 188.229 298.474 188.953 297.807C189.672 297.141 190.036 296.307 190.036 295.307C190.036 294.297 189.682 293.448 188.974 292.766C188.276 292.089 187.458 291.745 186.515 291.745H184.724V298.807H186.536Z" fill="white"/>
<path d="M198.515 300.224C198.181 299.823 198.015 299.464 198.015 299.141C198.015 298.823 198.286 298.401 198.827 297.87C199.129 297.578 199.457 297.432 199.806 297.432C200.166 297.432 200.661 297.745 201.286 298.37C201.452 298.578 201.692 298.781 202.015 298.974C202.348 299.172 202.645 299.266 202.911 299.266C204.077 299.266 204.661 298.797 204.661 297.849C204.661 297.557 204.499 297.318 204.181 297.12C203.859 296.927 203.463 296.787 202.994 296.703C202.52 296.62 202.004 296.485 201.452 296.287C200.911 296.094 200.4 295.865 199.931 295.599C199.457 295.339 199.062 294.927 198.744 294.37C198.421 293.802 198.265 293.115 198.265 292.307C198.265 291.214 198.671 290.261 199.494 289.453C200.312 288.636 201.421 288.224 202.827 288.224C203.577 288.224 204.254 288.323 204.869 288.516C205.494 288.714 205.921 288.906 206.161 289.099L206.619 289.453C207.004 289.818 207.202 290.12 207.202 290.37C207.202 290.62 207.046 290.964 206.744 291.391C206.327 292.016 205.895 292.328 205.452 292.328C205.187 292.328 204.859 292.203 204.473 291.953C204.431 291.927 204.353 291.865 204.244 291.766C204.145 291.672 204.056 291.594 203.973 291.537C203.707 291.37 203.374 291.287 202.973 291.287C202.567 291.287 202.228 291.386 201.952 291.578C201.687 291.776 201.556 292.047 201.556 292.391C201.556 292.724 201.713 292.995 202.036 293.203C202.353 293.412 202.749 293.557 203.223 293.641C203.692 293.714 204.207 293.828 204.765 293.995C205.332 294.151 205.853 294.339 206.327 294.557C206.796 294.781 207.192 295.172 207.515 295.724C207.832 296.281 207.994 296.964 207.994 297.766C207.994 298.573 207.827 299.287 207.494 299.912C207.171 300.526 206.749 300.995 206.223 301.328C205.223 301.995 204.145 302.328 202.994 302.328C202.411 302.328 201.853 302.255 201.327 302.12C200.812 301.969 200.39 301.787 200.056 301.578C199.4 301.177 198.942 300.787 198.681 300.412L198.515 300.224Z" fill="white"/>
<path d="M212.878 299.224C212.987 299.016 213.17 298.87 213.42 298.787C213.67 298.703 214.066 298.662 214.607 298.662C215.159 298.662 215.555 298.787 215.795 299.037C216.045 299.276 216.17 299.74 216.17 300.432C216.17 300.698 216.149 300.943 216.107 301.162C215.993 302.229 215.649 303.151 215.066 303.932C214.482 304.724 213.795 305.12 213.003 305.12C212.92 305.12 212.842 305.047 212.774 304.912C212.701 304.787 212.67 304.62 212.67 304.412C212.67 304.203 212.696 304.037 212.753 303.912C212.805 303.787 212.878 303.708 212.961 303.682C213.055 303.651 213.149 303.604 213.232 303.537C213.326 303.464 213.461 303.297 213.628 303.037C213.795 302.771 213.888 302.474 213.92 302.141C213.513 302.089 213.201 301.953 212.982 301.745C212.758 301.526 212.649 301.172 212.649 300.682C212.659 300.182 212.675 299.865 212.691 299.724C212.717 299.589 212.779 299.422 212.878 299.224Z" fill="white"/>
<path d="M229.803 300.224C229.47 299.823 229.303 299.464 229.303 299.141C229.303 298.823 229.574 298.401 230.115 297.87C230.417 297.578 230.746 297.432 231.095 297.432C231.454 297.432 231.949 297.745 232.574 298.37C232.74 298.578 232.98 298.781 233.303 298.974C233.636 299.172 233.933 299.266 234.199 299.266C235.365 299.266 235.949 298.797 235.949 297.849C235.949 297.557 235.787 297.318 235.47 297.12C235.147 296.927 234.751 296.787 234.282 296.703C233.808 296.62 233.292 296.485 232.74 296.287C232.199 296.094 231.688 295.865 231.22 295.599C230.746 295.339 230.35 294.927 230.032 294.37C229.709 293.802 229.553 293.115 229.553 292.307C229.553 291.214 229.959 290.261 230.782 289.453C231.6 288.636 232.709 288.224 234.115 288.224C234.865 288.224 235.542 288.323 236.157 288.516C236.782 288.714 237.209 288.906 237.449 289.099L237.907 289.453C238.292 289.818 238.49 290.12 238.49 290.37C238.49 290.62 238.334 290.964 238.032 291.391C237.615 292.016 237.183 292.328 236.74 292.328C236.475 292.328 236.147 292.203 235.761 291.953C235.72 291.927 235.641 291.865 235.532 291.766C235.433 291.672 235.345 291.594 235.261 291.537C234.996 291.37 234.662 291.287 234.261 291.287C233.855 291.287 233.516 291.386 233.24 291.578C232.975 291.776 232.845 292.047 232.845 292.391C232.845 292.724 233.001 292.995 233.324 293.203C233.641 293.412 234.037 293.557 234.511 293.641C234.98 293.714 235.496 293.828 236.053 293.995C236.621 294.151 237.141 294.339 237.615 294.557C238.084 294.781 238.48 295.172 238.803 295.724C239.121 296.281 239.282 296.964 239.282 297.766C239.282 298.573 239.115 299.287 238.782 299.912C238.459 300.526 238.037 300.995 237.511 301.328C236.511 301.995 235.433 302.328 234.282 302.328C233.699 302.328 233.141 302.255 232.615 302.12C232.1 301.969 231.678 301.787 231.345 301.578C230.688 301.177 230.23 300.787 229.97 300.412L229.803 300.224Z" fill="white"/>
<path d="M244.229 290.078C244.229 289.802 244.234 289.594 244.249 289.453C244.275 289.302 244.338 289.136 244.437 288.953C244.604 288.61 245.088 288.432 245.895 288.432C246.77 288.432 247.281 288.672 247.437 289.141C247.505 289.349 247.541 289.672 247.541 290.099V300.495C247.541 300.802 247.525 301.026 247.499 301.162C247.484 301.287 247.427 301.448 247.333 301.641C247.15 301.974 246.666 302.141 245.874 302.141C244.999 302.141 244.484 301.906 244.333 301.432C244.26 301.24 244.229 300.922 244.229 300.474V290.078Z" fill="white"/>
<path d="M267.333 288.974C267.427 289.156 267.484 289.323 267.5 289.474C267.526 289.63 267.541 289.844 267.541 290.12V300.495C267.541 301.36 267.297 301.865 266.812 302.016C266.573 302.089 266.276 302.12 265.916 302.12C265.552 302.12 265.271 302.094 265.062 302.037C264.854 301.969 264.692 301.891 264.583 301.807C264.468 301.724 264.38 301.599 264.312 301.432C264.255 301.224 264.229 300.901 264.229 300.453V294.203C263.906 294.594 263.448 295.214 262.854 296.057C262.255 296.891 261.875 297.412 261.708 297.62C261.552 297.828 261.442 297.974 261.375 298.057C261.317 298.141 261.166 298.255 260.916 298.391C260.677 298.531 260.422 298.599 260.146 298.599C259.864 298.599 259.609 298.537 259.375 298.412C259.135 298.287 258.968 298.162 258.875 298.037L258.729 297.828C258.479 297.511 257.984 296.844 257.25 295.828C256.51 294.818 256.114 294.276 256.062 294.203V300.495C256.062 300.787 256.047 301.005 256.021 301.141C256.005 301.281 255.948 301.443 255.854 301.62C255.656 301.953 255.172 302.12 254.396 302.12C253.63 302.12 253.156 301.953 252.979 301.62C252.88 301.443 252.817 301.281 252.791 301.141C252.776 300.99 252.771 300.761 252.771 300.453V290.078C252.771 289.802 252.776 289.594 252.791 289.453C252.817 289.302 252.88 289.136 252.979 288.953C253.156 288.62 253.646 288.453 254.437 288.453C254.771 288.453 255.052 288.495 255.291 288.578C255.541 288.662 255.698 288.745 255.771 288.828L255.896 288.953L260.125 294.516C262.25 291.714 263.666 289.865 264.375 288.974C264.583 288.63 265.083 288.453 265.875 288.453C266.666 288.453 267.151 288.63 267.333 288.974Z" fill="white"/>
<path d="M282.872 291.224C283.19 291.88 283.351 292.61 283.351 293.412C283.351 294.219 283.19 294.953 282.872 295.62C282.549 296.276 282.132 296.787 281.622 297.162C280.591 297.969 279.523 298.37 278.414 298.37H276.08V300.474C276.08 300.766 276.065 300.985 276.039 301.12C276.023 301.261 275.966 301.427 275.872 301.62C275.69 301.953 275.205 302.12 274.414 302.12C273.539 302.12 273.023 301.891 272.872 301.432C272.799 301.224 272.768 300.901 272.768 300.453V290.078C272.768 289.802 272.773 289.594 272.789 289.453C272.815 289.302 272.877 289.136 272.976 288.953C273.143 288.61 273.627 288.432 274.435 288.432H278.435C279.528 288.432 280.591 288.839 281.622 289.641C282.132 290.031 282.549 290.557 282.872 291.224ZM278.435 295.057C278.81 295.057 279.174 294.927 279.539 294.662C279.898 294.386 280.08 293.974 280.08 293.432C280.08 292.88 279.898 292.464 279.539 292.182C279.174 291.891 278.799 291.745 278.414 291.745H276.08V295.057H278.435Z" fill="white"/>
<path d="M291.63 299.37H296.713C297.114 299.37 297.406 299.422 297.588 299.516C297.781 299.615 297.906 299.761 297.963 299.953C298.031 300.151 298.068 300.412 298.068 300.745C298.068 301.078 298.031 301.349 297.963 301.557C297.906 301.755 297.802 301.886 297.651 301.953C297.411 302.078 297.094 302.141 296.693 302.141H289.963C289.088 302.141 288.573 301.906 288.422 301.432C288.349 301.24 288.318 300.922 288.318 300.474V290.078C288.318 289.802 288.323 289.594 288.338 289.453C288.364 289.302 288.427 289.136 288.526 288.953C288.693 288.61 289.177 288.432 289.984 288.432C290.859 288.432 291.37 288.672 291.526 289.141C291.594 289.349 291.63 289.672 291.63 290.099V299.37Z" fill="white"/>
<path d="M303.026 290.078C303.026 289.802 303.032 289.594 303.047 289.453C303.073 289.302 303.136 289.136 303.235 288.953C303.401 288.61 303.886 288.432 304.693 288.432C305.568 288.432 306.078 288.672 306.235 289.141C306.302 289.349 306.339 289.672 306.339 290.099V300.495C306.339 300.802 306.323 301.026 306.297 301.162C306.282 301.287 306.224 301.448 306.131 301.641C305.948 301.974 305.464 302.141 304.672 302.141C303.797 302.141 303.282 301.906 303.131 301.432C303.058 301.24 303.026 300.922 303.026 300.474V290.078Z" fill="white"/>
<path d="M320.631 288.432C320.922 288.432 321.136 288.448 321.277 288.474C321.412 288.49 321.574 288.552 321.756 288.662C321.933 288.761 322.058 288.927 322.131 289.162C322.214 289.401 322.256 289.719 322.256 290.12C322.256 290.511 322.214 290.823 322.131 291.057C322.058 291.297 321.928 291.464 321.735 291.557C321.553 291.656 321.391 291.714 321.256 291.724C321.115 291.74 320.891 291.745 320.589 291.745H314.881V293.641H318.547C318.85 293.641 319.074 293.656 319.214 293.682C319.365 293.698 319.532 293.755 319.714 293.849C320.032 294.031 320.193 294.526 320.193 295.328C320.193 296.193 319.954 296.703 319.485 296.87C319.287 296.943 318.969 296.974 318.527 296.974H314.881V300.495C314.881 300.802 314.865 301.026 314.839 301.162C314.824 301.287 314.766 301.448 314.672 301.641C314.49 301.974 314.006 302.141 313.214 302.141C312.339 302.141 311.824 301.906 311.672 301.432C311.6 301.24 311.568 300.922 311.568 300.474V290.078C311.568 289.453 311.683 289.026 311.922 288.787C312.157 288.552 312.61 288.432 313.277 288.432H320.631Z" fill="white"/>
<path d="M327.212 290.078C327.212 289.802 327.217 289.594 327.232 289.453C327.258 289.302 327.321 289.136 327.42 288.953C327.587 288.61 328.071 288.432 328.878 288.432C329.753 288.432 330.264 288.672 330.42 289.141C330.488 289.349 330.524 289.672 330.524 290.099V300.495C330.524 300.802 330.508 301.026 330.482 301.162C330.467 301.287 330.409 301.448 330.316 301.641C330.133 301.974 329.649 302.141 328.857 302.141C327.982 302.141 327.467 301.906 327.316 301.432C327.243 301.24 327.212 300.922 327.212 300.474V290.078Z" fill="white"/>
<path d="M339.066 298.828H344.816C345.108 298.828 345.321 298.844 345.462 298.87C345.597 298.886 345.764 298.943 345.962 299.037C346.295 299.219 346.462 299.703 346.462 300.495C346.462 301.37 346.233 301.886 345.774 302.037C345.55 302.11 345.222 302.141 344.795 302.141H337.399C336.524 302.141 336.009 301.906 335.858 301.432C335.785 301.24 335.753 300.922 335.753 300.474V290.078C335.753 289.453 335.868 289.026 336.108 288.787C336.342 288.552 336.795 288.432 337.462 288.432H344.816C345.108 288.432 345.321 288.448 345.462 288.474C345.597 288.49 345.764 288.547 345.962 288.641C346.295 288.823 346.462 289.307 346.462 290.099C346.462 290.974 346.233 291.49 345.774 291.641C345.55 291.714 345.222 291.745 344.795 291.745H339.066V293.641H342.753C343.045 293.641 343.259 293.656 343.399 293.682C343.55 293.698 343.717 293.755 343.899 293.849C344.233 294.016 344.399 294.505 344.399 295.307C344.399 296.172 344.16 296.677 343.691 296.828C343.483 296.912 343.154 296.953 342.712 296.953H339.066V298.828Z" fill="white"/>
<path d="M353.082 288.432H356.54C358.342 288.432 359.926 289.089 361.29 290.391C362.665 291.698 363.353 293.302 363.353 295.203C363.353 297.11 362.676 298.74 361.332 300.099C359.999 301.448 358.379 302.12 356.478 302.12H353.061C352.296 302.12 351.822 301.969 351.644 301.662C351.488 301.401 351.415 300.995 351.415 300.453V290.078C351.415 289.776 351.421 289.552 351.436 289.412C351.462 289.276 351.525 289.115 351.624 288.932C351.79 288.599 352.275 288.432 353.082 288.432ZM356.54 298.807C357.426 298.807 358.233 298.474 358.957 297.807C359.676 297.141 360.04 296.307 360.04 295.307C360.04 294.297 359.686 293.448 358.978 292.766C358.28 292.089 357.462 291.745 356.519 291.745H354.728V298.807H356.54Z" fill="white"/>
<path d="M371.206 299.057C371.415 299.266 371.519 299.703 371.519 300.37V300.432C371.519 300.74 371.503 300.969 371.477 301.12C371.462 301.261 371.399 301.427 371.29 301.62C371.107 301.985 370.633 302.162 369.873 302.162C369.123 302.162 368.623 302.047 368.373 301.807C368.133 301.573 368.019 301.12 368.019 300.453V300.391C368.019 300.099 368.024 299.886 368.04 299.745C368.066 299.594 368.128 299.422 368.227 299.224C368.42 298.849 368.894 298.662 369.644 298.662C370.394 298.662 370.915 298.797 371.206 299.057Z" fill="white"/>
<mask id="mask0_1_2" style="mask-type:luminance" maskUnits="userSpaceOnUse" x="241" y="174" width="37" height="98">
<path d="M241.573 174.656H277.333V271.656H241.573V174.656Z" fill="white"/>
</mask>
<g mask="url(#mask0_1_2)">
<path d="M261.135 271.656C270.062 271.656 277.297 264.417 277.297 255.49V190.823C277.297 181.891 270.062 174.656 261.135 174.656H257.901C248.974 174.656 241.74 181.891 241.74 190.823V255.49C241.74 264.417 248.974 271.656 257.901 271.656H261.135ZM244.969 219.922V191.224C244.969 184.542 250.005 177.891 256.687 177.891H260.729C267.417 177.891 274.062 184.542 274.062 191.224V219.922H244.969ZM264.365 259.932V227.599C264.365 226.484 264.865 225.578 265.984 225.578C267.099 225.578 267.599 226.484 267.599 227.599V259.932C267.599 261.052 267.099 261.953 265.984 261.953C264.865 261.953 264.365 261.052 264.365 259.932Z" fill="white"/>
</g>
<mask id="mask1_1_2" style="mask-type:luminance" maskUnits="userSpaceOnUse" x="302" y="174" width="38" height="98">
<path d="M302.667 174.797H339.026V271.797H302.667V174.797Z" fill="white"/>
</mask>
<g mask="url(#mask1_1_2)">
<path d="M319.464 174.797C310.536 174.797 303.302 182.031 303.302 190.964V255.63C303.302 264.557 310.536 271.797 319.464 271.797H322.698C331.63 271.797 338.865 264.557 338.865 255.63V190.964C338.865 182.031 331.63 174.797 322.698 174.797H319.464ZM335.63 226.531V255.224C335.63 261.911 330.599 268.563 323.911 268.563H319.87C313.182 268.563 306.536 261.911 306.536 255.224V226.531H335.63ZM316.234 186.516V218.849C316.234 219.969 315.734 220.87 314.615 220.87C313.5 220.87 313 219.969 313 218.849V186.516C313 185.396 313.5 184.495 314.615 184.495C315.734 184.495 316.234 185.396 316.234 186.516Z" fill="white"/>
</g>
</g>
<defs>
<clipPath id="clip0_1_2">
<rect width="500" height="500" fill="white"/>
</clipPath>
</defs>
</svg>
